<svg width="52" height="45" viewBox="0 0 52 45" fill="none" xmlns="http://www.w3.org/2000/svg">
<path d="M29.2857 0C23.2615 0 17.484 2.37053 13.2243 6.59009C9.20303 10.5734 6.84525 15.8965 6.59384 21.5002C6.56909 22.0519 6.12371 22.5 5.57143 22.5H1.43049C0.537297 22.5 0.0921723 23.5819 0.72674 24.2104L8.7881 32.1958C8.80765 32.2151 8.82394 32.2375 8.83634 32.2621C8.91437 32.4167 9.12043 32.4503 9.24362 32.3286L17.4586 24.2113C18.0943 23.5831 17.6495 22.5 16.7557 22.5H12.619C12.0668 22.5 11.6161 22.0514 11.6473 21.5C12.1694 12.2915 19.8574 5 29.2857 5C39.0529 5 46.9524 12.825 46.9524 22.5C46.9524 32.175 39.0529 40 29.2857 40C24.7739 40 20.6518 38.3055 17.5413 35.5324C17.1307 35.1663 16.5024 35.1627 16.1116 35.5499L13.9495 37.6915C13.5553 38.082 13.553 38.7206 13.9632 39.0943C15.9069 40.8643 18.1506 42.285 20.5939 43.2896C23.3488 44.4224 26.3029 45.0037 29.2857 45C35.3099 45 41.0874 42.6295 45.3471 38.4099C49.6069 34.1903 52 28.4674 52 22.5C52 16.5326 49.6069 10.8097 45.3471 6.59009C41.0874 2.37053 35.3099 8.89207e-08 29.2857 0ZM27.7619 12.5C27.2096 12.5 26.7619 12.9477 26.7619 13.5V24.4279C26.7619 24.7823 26.9496 25.1103 27.2551 25.2899L36.7099 30.848C37.1828 31.126 37.7914 30.9711 38.0739 30.5009L38.8614 29.1899C39.1476 28.7135 38.9904 28.0951 38.5115 27.8132L31.0403 23.415C30.735 23.2353 30.5476 22.9075 30.5476 22.5533V13.5C30.5476 12.9477 30.0999 12.5 29.5476 12.5H27.7619Z" fill="#F8F8F8"/>
</svg>
