<svg width="47" height="43" viewBox="0 0 47 43" fill="none" xmlns="http://www.w3.org/2000/svg">
<path d="M3 15.3333C3 10.8936 3 6.04143 3 3.99652C3 3.44424 3.44423 3 3.99652 3C6.04143 3 10.8936 3 15.3333 3H31.7778C36.2175 3 41.0697 3 43.1146 3C43.6669 3 44.1111 3.44423 44.1111 3.99652C44.1111 6.04143 44.1111 10.8936 44.1111 15.3333V17.3889C44.1111 21.8286 44.1111 26.6808 44.1111 28.7257C44.1111 29.278 43.6669 29.7222 43.1146 29.7222C41.0697 29.7222 36.2175 29.7222 31.7778 29.7222H15.3333C10.8936 29.7222 6.04143 29.7222 3.99652 29.7222C3.44424 29.7222 3 29.278 3 28.7257C3 26.6808 3 21.8286 3 17.3889V15.3333Z" stroke="#F8F8F8" stroke-width="5.5" stroke-miterlimit="16"/>
<path d="M23.5555 35.8889V30.75V35.8889ZM23.5555 35.8889L35.8888 40L23.5555 35.8889ZM23.5555 35.8889L11.2222 40L23.5555 35.8889Z" fill="#F8F8F8"/>
<path d="M23.5555 35.8889V30.75M23.5555 35.8889L35.8888 40M23.5555 35.8889L11.2222 40" stroke="#F8F8F8" stroke-width="5.5" stroke-linecap="round"/>
</svg>
