<svg width="49" height="39" viewBox="0 0 49 39" fill="none" xmlns="http://www.w3.org/2000/svg">
<path d="M36.0122 16.449C35.6219 16.8405 34.988 16.841 34.5971 16.4503L27.4173 9.27419C27.0265 8.88362 27.0265 8.25017 27.4173 7.8596L29.4264 5.85155C29.8169 5.46127 30.4497 5.46127 30.8402 5.85155L34.5741 9.58343C34.9645 9.97371 35.5974 9.97371 35.9879 9.58343L44.8694 0.706554C45.2599 0.316275 45.8928 0.316276 46.2832 0.706555L48.2936 2.71586C48.6839 3.10594 48.6844 3.73843 48.2948 4.12919L36.0122 16.449ZM21.8533 8.45053C21.8533 7.89825 21.4056 7.45053 20.8533 7.45053H1C0.447715 7.45053 0 7.89824 0 8.45053V11.3043C0 11.8566 0.447715 12.3043 1 12.3043H20.8533C21.4056 12.3043 21.8533 11.8566 21.8533 11.3043V8.45053ZM45.4271 23.7141C45.8179 23.3236 45.8179 22.6901 45.4271 22.2996L43.418 20.2915C43.0275 19.9012 42.3947 19.9012 42.0042 20.2915L37.1291 25.164C36.7386 25.5543 36.1058 25.5543 35.7153 25.164L30.8402 20.2915C30.4497 19.9012 29.8169 19.9012 29.4264 20.2915L27.4173 22.2996C27.0265 22.6901 27.0265 23.3236 27.4173 23.7141L32.2909 28.5852C32.6816 28.9757 32.6816 29.6092 32.2909 29.9998L27.4173 34.8708C27.0265 35.2614 27.0265 35.8948 27.4173 36.2854L29.4264 38.2934C29.8169 38.6837 30.4497 38.6837 30.8402 38.2934L35.7153 33.4209C36.1058 33.0307 36.7386 33.0307 37.1291 33.4209L42.0042 38.2934C42.3947 38.6837 43.0275 38.6837 43.418 38.2934L45.4271 36.2854C45.8179 35.8948 45.8179 35.2614 45.4271 34.8708L40.5535 29.9998C40.1628 29.6092 40.1628 28.9757 40.5535 28.5852L45.4271 23.7141ZM21.8533 27.8656C21.8533 27.3133 21.4056 26.8656 20.8533 26.8656H1C0.447715 26.8656 0 27.3133 0 27.8656V30.7194C0 31.2716 0.447715 31.7194 1 31.7194H20.8533C21.4056 31.7194 21.8533 31.2716 21.8533 30.7194V27.8656Z" fill="#F8F8F8"/>
</svg>
