<svg width="25" height="11" viewBox="0 0 25 11" fill="none" xmlns="http://www.w3.org/2000/svg">
<g clip-path="url(#clip0_16096_3360)">
<path d="M0.567239 10.2474C1.03679 9.47848 1.51024 8.73366 1.96968 7.97874C2.42912 7.22381 2.87846 6.48289 3.3379 5.72797C3.348 5.71396 3.35811 5.69995 3.36822 5.68594C3.64732 5.26955 3.63261 5.40804 3.36553 4.98104C2.47242 3.59113 1.57932 2.20123 0.686214 0.811324C0.640282 0.756884 0.604458 0.688435 0.568634 0.619985C0.976324 0.61589 1.3739 0.625805 1.75748 0.625613C3.61309 0.622348 5.4586 0.633092 7.31422 0.629828C8.31633 0.628546 9.17624 0.972009 9.92425 1.61818C10.2683 1.909 10.5315 2.31189 10.811 2.66264C11.1543 3.10206 11.4937 3.51736 11.827 3.97079C11.9048 4.06956 11.985 4.10609 12.1095 4.1107C13.7558 4.19079 15.3921 4.28489 17.0244 4.35487C19.4076 4.4766 21.7908 4.59834 24.174 4.72007C24.6237 4.7463 24.9475 5.06513 24.9275 5.47672C24.9215 5.89842 24.6128 6.20824 24.1709 6.23024C22.2344 6.34559 20.3119 6.47104 18.3895 6.59649C16.3184 6.72123 14.2613 6.85609 12.1903 6.98083C11.9071 6.98954 11.7157 7.10711 11.5641 7.31726C11.166 7.83952 10.7679 8.36178 10.3659 8.85993C9.58835 9.79007 8.59193 10.2854 7.36886 10.2977C5.69998 10.3079 4.0412 10.304 2.36841 10.2901C1.81212 10.2935 1.27994 10.293 0.723647 10.2964C0.67151 10.28 0.623278 10.2878 0.567239 10.2474Z" fill="#FFA239"/>
</g>
<defs>
<clipPath id="clip0_16096_3360">
<rect width="25" height="11" fill=""/>
</clipPath>
</defs>
</svg>
